<?xml version="1.0" encoding="UTF-8"?>
<svg xmlns="http://www.w3.org/2000/svg" xmlns:xlink="http://www.w3.org/1999/xlink" width="128px" height="128px" viewBox="0 0 128 128" version="1.1">
<defs>
<linearGradient id="linear0" gradientUnits="userSpaceOnUse" x1="27.99999" y1="-276" x2="115.999992" y2="-276" gradientTransform="matrix(-1,0,0,-1,135.999985,-173.999998)">
<stop offset="0" style="stop-color:rgb(75.294119%,74.901962%,73.725492%);stop-opacity:1;"/>
<stop offset="0.0454545" style="stop-color:rgb(100%,100%,100%);stop-opacity:1;"/>
<stop offset="0.0909091" style="stop-color:rgb(87.058824%,86.666667%,85.490197%);stop-opacity:1;"/>
<stop offset="0.909091" style="stop-color:rgb(87.058824%,86.666667%,85.490197%);stop-opacity:1;"/>
<stop offset="0.954545" style="stop-color:rgb(100%,100%,100%);stop-opacity:1;"/>
<stop offset="1" style="stop-color:rgb(75.294119%,74.901962%,73.725492%);stop-opacity:1;"/>
</linearGradient>
<clipPath id="clip1">
  <path d="M 88 94 L 108 94 L 108 114 L 88 114 Z M 88 94 "/>
</clipPath>
<clipPath id="clip2">
  <path d="M 108 94 L 88 114 L 82.285156 114 L 82.285156 88.285156 L 108 88.285156 Z M 108 94 "/>
</clipPath>
<linearGradient id="linear1" gradientUnits="userSpaceOnUse" x1="344" y1="76" x2="340" y2="72" gradientTransform="matrix(0,0.178571,0.178571,0,84.428574,42.571447)">
<stop offset="0" style="stop-color:rgb(83.529413%,82.745099%,81.176472%);stop-opacity:1;"/>
<stop offset="1" style="stop-color:rgb(100%,100%,100%);stop-opacity:1;"/>
</linearGradient>
<linearGradient id="linear2" gradientUnits="userSpaceOnUse" x1="-253.630356" y1="-56.517502" x2="-230.060135" y2="-56.517502" gradientTransform="matrix(0.6,0.6,0.707107,-0.707107,295.740141,128.474214)">
<stop offset="0" style="stop-color:rgb(98.823529%,80.784315%,79.215688%);stop-opacity:1;"/>
<stop offset="1" style="stop-color:rgb(79.607844%,49.803922%,50.980395%);stop-opacity:1;"/>
</linearGradient>
<linearGradient id="linear3" gradientUnits="userSpaceOnUse" x1="-253.630356" y1="-56.517502" x2="-230.060135" y2="-56.517502" gradientTransform="matrix(0.6,0.6,0.707107,-0.707107,294.325928,129.888428)">
<stop offset="0" style="stop-color:rgb(98.823529%,80.784315%,79.215688%);stop-opacity:1;"/>
<stop offset="1" style="stop-color:rgb(79.607844%,49.803922%,50.980395%);stop-opacity:1;"/>
</linearGradient>
<linearGradient id="linear4" gradientUnits="userSpaceOnUse" x1="181.677414" y1="-139.479385" x2="143.24614" y2="-101.048103" gradientTransform="matrix(0.390307,-0.130102,0.130102,-0.390307,-2.964383,65.147882)">
<stop offset="0" style="stop-color:rgb(81.568629%,73.333335%,55.686277%);stop-opacity:1;"/>
<stop offset="1" style="stop-color:rgb(100%,100%,100%);stop-opacity:1;"/>
</linearGradient>
<linearGradient id="linear5" gradientUnits="userSpaceOnUse" x1="-230.060135" y1="-64.517509" x2="-253.630356" y2="-64.517509" gradientTransform="matrix(0.6,0.6,0.707107,-0.707107,294.32593,129.888425)">
<stop offset="0" style="stop-color:rgb(84.313726%,83.92157%,83.529413%);stop-opacity:1;"/>
<stop offset="0.266667" style="stop-color:rgb(72.941178%,72.549021%,71.372551%);stop-opacity:1;"/>
<stop offset="0.523333" style="stop-color:rgb(83.92157%,83.529413%,82.352942%);stop-opacity:1;"/>
<stop offset="0.857" style="stop-color:rgb(87.058824%,86.666667%,85.490197%);stop-opacity:1;"/>
<stop offset="1" style="stop-color:rgb(75.294119%,74.901962%,73.725492%);stop-opacity:1;"/>
</linearGradient>
</defs>
<g id="surface188048">
<path style=" stroke:none;fill-rule:nonzero;fill:rgb(10.196079%,37.254903%,70.588237%);fill-opacity:1;" d="M 100 120 L 28 120 C 23.582031 120 20 116.417969 20 112 L 20 97.75 C 20 93.332031 23.582031 89.75 28 89.75 L 100 89.75 C 104.417969 89.75 108 93.332031 108 97.75 L 108 112 C 108 116.417969 104.417969 120 100 120 Z M 100 120 "/>
<path style=" stroke:none;fill-rule:nonzero;fill:url(#linear0);" d="M 100 118 L 28 118 C 23.582031 118 20 114.417969 20 110 L 20 86 C 20 81.582031 23.582031 78 28 78 L 100 78 C 104.417969 78 108 81.582031 108 86 L 108 110 C 108 114.417969 104.417969 118 100 118 Z M 100 118 "/>
<path style=" stroke:none;fill-rule:nonzero;fill:rgb(96.470588%,96.078432%,95.686275%);fill-opacity:1;" d="M 98.875 114 L 29.125 114 C 24.085938 114 20 109.914062 20 104.875 L 20 17 C 20 11.960938 24.085938 7.875 29.125 7.875 L 98.875 7.875 C 103.914062 7.875 108 11.960938 108 17 L 108 104.875 C 108 109.914062 103.914062 114 98.875 114 Z M 98.875 114 "/>
<path style=" stroke:none;fill-rule:nonzero;fill:rgb(0%,0%,0%);fill-opacity:0.15748;" d="M 108 17.464844 C 106.613281 17.960938 105.351562 18.753906 104.304688 19.796875 L 95.820312 28.28125 L 43 81.097656 L 43.035156 81.136719 L 41.394531 90.707031 L 40.121094 98.121094 L 47.535156 96.851562 L 57.109375 95.207031 L 57.140625 95.242188 L 57.191406 95.195312 L 108 44.386719 Z M 108 17.464844 "/>
<g clip-path="url(#clip1)" clip-rule="nonzero">
<g clip-path="url(#clip2)" clip-rule="nonzero">
<path style=" stroke:none;fill-rule:nonzero;fill:url(#linear1);" d="M 88 102 L 88 111.714844 C 88 116.132812 91.582031 119.714844 96 119.714844 L 105.714844 119.714844 C 110.132812 119.714844 113.714844 116.132812 113.714844 111.714844 L 113.714844 102 C 113.714844 97.582031 110.132812 94 105.714844 94 L 96 94 C 91.582031 94 88 97.582031 88 102 Z M 88 102 "/>
</g>
</g>
<path style=" stroke:none;fill-rule:nonzero;fill:rgb(10.196079%,37.254903%,70.588237%);fill-opacity:1;" d="M 29.125 9.875 C 24.070312 9.875 20 13.945312 20 19 L 20 24 L 105.324219 24 C 106.253906 24 107.152344 23.859375 108 23.601562 L 108 19 C 108 13.945312 103.929688 9.875 98.875 9.875 Z M 29.125 9.875 "/>
<path style=" stroke:none;fill-rule:nonzero;fill:rgb(20.784314%,51.764709%,89.411765%);fill-opacity:1;" d="M 29.125 7.875 C 24.070312 7.875 20 11.945312 20 17 L 20 22 L 105.324219 22 C 106.253906 22 107.152344 21.859375 108 21.601562 L 108 17 C 108 11.945312 103.929688 7.875 98.875 7.875 Z M 29.125 7.875 "/>
<path style=" stroke:none;fill-rule:nonzero;fill:rgb(96.078432%,76.078433%,6.666667%);fill-opacity:1;" d="M 42.34375 80.34375 L 53.65625 91.65625 L 113.253906 32.058594 L 101.941406 20.746094 Z M 42.34375 80.34375 "/>
<path style=" stroke:none;fill-rule:nonzero;fill:rgb(89.803922%,64.705884%,3.921569%);fill-opacity:1;" d="M 50.777344 88.878906 L 55.019531 93.121094 L 114.617188 33.523438 L 110.375 29.28125 Z M 50.777344 88.878906 "/>
<path style=" stroke:none;fill-rule:nonzero;fill:rgb(97.254902%,89.411765%,36.078432%);fill-opacity:1;" d="M 45.121094 83.222656 L 40.878906 78.980469 L 100.476562 19.382812 L 104.71875 23.625 Z M 45.121094 83.222656 "/>
<path style=" stroke:none;fill-rule:nonzero;fill:url(#linear2);" d="M 96.527344 23.332031 L 110.667969 37.472656 L 116.324219 31.816406 L 102.183594 17.675781 Z M 96.527344 23.332031 "/>
<path style=" stroke:none;fill-rule:nonzero;fill:url(#linear3);" d="M 116.324219 31.816406 C 120.230469 27.910156 120.230469 21.578125 116.324219 17.675781 C 112.421875 13.769531 106.089844 13.769531 102.183594 17.675781 C 98.277344 21.578125 98.277344 27.910156 102.183594 31.816406 C 106.089844 35.722656 112.421875 35.722656 116.324219 31.816406 Z M 116.324219 31.816406 "/>
<path style=" stroke:none;fill-rule:nonzero;fill:url(#linear4);" d="M 38 96 L 55.070312 93.070312 L 40.929688 78.929688 Z M 38 96 "/>
<path style=" stroke:none;fill-rule:nonzero;fill:rgb(23.921569%,21.960784%,27.450982%);fill-opacity:1;" d="M 38 96 L 45.414062 94.726562 L 39.273438 88.585938 Z M 38 96 "/>
<path style=" stroke:none;fill-rule:nonzero;fill:url(#linear5);" d="M 93.699219 26.160156 L 107.839844 40.300781 L 113.496094 34.644531 L 99.355469 20.503906 Z M 93.699219 26.160156 "/>
</g>
</svg>
