<svg xmlns="http://www.w3.org/2000/svg" xmlns:xlink="http://www.w3.org/1999/xlink" height="128" width="128"><defs><linearGradient id="t" gradientTransform="matrix(.6 .6 .7071 -.7071 295.741 128.473)" x1="-253.63" x2="-230.06" xlink:href="#a" y1="-56.518" y2="-56.518"/><linearGradient id="u" gradientTransform="matrix(.6 .6 .7071 -.7071 294.327 129.888)" x1="-253.63" x2="-230.06" xlink:href="#a" y1="-56.518" y2="-56.518"/><linearGradient id="w" gradientTransform="matrix(.6 .6 .7071 -.7071 294.327 129.888)" gradientUnits="userSpaceOnUse" x1="-230.06" x2="-253.63" y1="-64.518" y2="-64.518"><stop offset="0" stop-color="#c0bfbc"/><stop offset=".223" stop-color="#9a9996"/><stop offset=".744" stop-color="#d6d5d2"/><stop offset="1" stop-color="#f6f5f4"/></linearGradient><linearGradient xlink:href="#b" id="v" gradientUnits="userSpaceOnUse" gradientTransform="matrix(.3903 -.1301 .1301 -.3903 -2.964 65.148)" x1="181.677" y1="-139.479" x2="143.246" y2="-101.048"/></defs><linearGradient id="f" gradientTransform="rotate(180 68 -87)" gradientUnits="userSpaceOnUse" x1="28" x2="116" y1="-276" y2="-276"><stop offset="0" stop-color="#c0bfbc"/><stop offset=".045" stop-color="#fff"/><stop offset=".091" stop-color="#deddda"/><stop offset=".909" stop-color="#deddda"/><stop offset=".955" stop-color="#fff"/><stop offset="1" stop-color="#c0bfbc"/></linearGradient><clipPath id="m"><path d="M88 94h20v20H88zm0 0"/></clipPath><clipPath id="n"><path d="M108 94l-20 20h-5.715V88.285H108zm0 0"/></clipPath><linearGradient id="i" gradientTransform="matrix(0 .17857 .17857 0 84.429 42.571)" gradientUnits="userSpaceOnUse" x1="344" x2="340" y1="76" y2="72"><stop offset="0" stop-color="#d5d3cf"/><stop offset="1" stop-color="#fff"/></linearGradient><linearGradient id="a" gradientUnits="userSpaceOnUse"><stop offset="0" stop-color="#fc9a91"/><stop offset="1" stop-color="#cb2b31"/></linearGradient><linearGradient id="j" gradientTransform="matrix(.6 .6 .7071 -.7071 295.741 128.473)" x1="-253.63" x2="-230.06" xlink:href="#a" y1="-56.518" y2="-56.518"/><linearGradient id="k" gradientTransform="matrix(.6 .6 .7071 -.7071 294.327 129.888)" x1="-253.63" x2="-230.06" xlink:href="#a" y1="-56.518" y2="-56.518"/><linearGradient id="b" gradientTransform="matrix(.3903 -.1301 .1301 -.3903 -2.964 65.148)" gradientUnits="userSpaceOnUse" x1="181.677" x2="143.246" y1="-139.479" y2="-101.048"><stop offset="0" stop-color="#d0bb8e"/><stop offset="1" stop-color="#fff"/></linearGradient><linearGradient id="l" gradientTransform="matrix(.6 .6 .7071 -.7071 294.327 129.888)" gradientUnits="userSpaceOnUse" x1="-230.06" x2="-253.63" y1="-64.518" y2="-64.518"><stop offset="0" stop-color="#c0bfbc"/><stop offset=".223" stop-color="#9a9996"/><stop offset=".744" stop-color="#d6d5d2"/><stop offset="1" stop-color="#f6f5f4"/></linearGradient><clipPath id="g"><path d="M88 94h20v20H88zm0 0"/></clipPath><clipPath id="h"><path d="M108 94l-20 20h-5.715V88.285H108zm0 0"/></clipPath><clipPath id="e"><path d="M0 0h128v128H0z"/></clipPath><clipPath id="c"><path d="M0 0h128v128H0z"/></clipPath><filter id="d" height="100%" width="100%" x="0%" y="0%"><feColorMatrix in="SourceGraphic" values="0 0 0 0 1 0 0 0 0 1 0 0 0 0 1 0 0 0 1 0"/></filter><mask id="p"><g clip-path="url(#c)" filter="url(#d)"><g clip-path="url(#e)"><path d="M100 120H28a8 8 0 01-8-8V97.75a8 8 0 018-8h72a8 8 0 018 8V112a8 8 0 01-8 8zm0 0" fill="#1a5fb4"/><path d="M100 118H28a8 8 0 01-8-8V86a8 8 0 018-8h72a8 8 0 018 8v24a8 8 0 01-8 8zm0 0" fill="url(#f)"/><path d="M98.875 114h-69.75A9.126 9.126 0 0120 104.875V17a9.126 9.126 0 019.125-9.125h69.75A9.126 9.126 0 01108 17v87.875A9.126 9.126 0 0198.875 114zm0 0" fill="#f6f5f4"/><g clip-path="url(#g)"><g clip-path="url(#h)"><path d="M88 102v9.715a8 8 0 008 8h9.715a8 8 0 008-8V102a8 8 0 00-8-8H96a8 8 0 00-8 8zm0 0" fill="url(#i)"/></g></g><path d="M29.125 9.875A9.106 9.106 0 0020 19v5h85.324c.93 0 1.828-.14 2.676-.398V19a9.106 9.106 0 00-9.125-9.125zm0 0" fill="#1a5fb4"/><path d="M29.125 7.875A9.106 9.106 0 0020 17v5h85.324c.93 0 1.828-.14 2.676-.398V17a9.106 9.106 0 00-9.125-9.125zm0 0" fill="#3584e4"/><path d="M48 52v6H28V32h72v20zm32 24v6H28V64h72v12zm0 0" fill="#deddda"/><path d="M42.344 80.344l11.312 11.312 59.598-59.597-11.313-11.313zm0 0" fill="#ff881e"/><path d="M50.777 88.879l4.243 4.242 59.597-59.598-4.242-4.242zm0 0" fill="#e66100"/><path d="M45.121 83.223L40.88 78.98l59.598-59.597 4.242 4.242zm0 0" fill="#ffb367"/><path d="M96.527 23.332l14.141 14.14 5.656-5.656-14.14-14.14zm0 0" fill="url(#j)"/><path d="M116.324 31.816c3.906-3.906 3.906-10.238 0-14.14-3.902-3.906-10.234-3.906-14.14 0-3.907 3.902-3.907 10.234 0 14.14s10.238 3.907 14.14 0zm0 0" fill="url(#k)"/><path d="M38 96l17.07-2.93-14.14-14.14zm0 0" fill="url(#b)"/><path d="M38 96l7.414-1.273-6.14-6.141zm0 0" fill="#3d3846"/><path d="M93.7 26.16l14.14 14.14 5.656-5.655-14.14-14.141zm0 0" fill="url(#l)"/></g></g></mask><mask id="r"><g filter="url(#d)"><path fill-opacity=".8" d="M0 0h128v128H0z"/></g></mask><linearGradient id="s" gradientTransform="matrix(0 .37 -.98462 0 295.385 -30.36)" gradientUnits="userSpaceOnUse" x1="300" x2="428" y1="235" y2="235"><stop offset="0" stop-color="#f9f06b"/><stop offset="1" stop-color="#f5c211"/></linearGradient><clipPath id="q"><path d="M0 0h128v128H0z"/></clipPath><clipPath id="o"><path d="M0 0h128v128H0z"/></clipPath><path d="M100 120H28a8 8 0 01-8-8V97.75a8 8 0 018-8h72a8 8 0 018 8V112a8 8 0 01-8 8zm0 0" fill="#1a5fb4"/><path d="M100 118H28a8 8 0 01-8-8V86a8 8 0 018-8h72a8 8 0 018 8v24a8 8 0 01-8 8zm0 0" fill="url(#f)"/><path d="M98.875 114h-69.75A9.126 9.126 0 0120 104.875V17a9.126 9.126 0 019.125-9.125h69.75A9.126 9.126 0 01108 17v87.875A9.126 9.126 0 0198.875 114zm0 0" fill="#f6f5f4"/><g clip-path="url(#m)"><g clip-path="url(#n)"><path d="M88 102v9.715a8 8 0 008 8h9.715a8 8 0 008-8V102a8 8 0 00-8-8H96a8 8 0 00-8 8zm0 0" fill="url(#i)"/></g></g><path d="M29.125 9.875A9.106 9.106 0 0020 19v5h85.324c.93 0 1.828-.14 2.676-.398V19a9.106 9.106 0 00-9.125-9.125zm0 0" fill="#1a5fb4"/><path d="M29.125 7.875A9.106 9.106 0 0020 17v5h85.324c.93 0 1.828-.14 2.676-.398V17a9.106 9.106 0 00-9.125-9.125zm0 0" fill="#3584e4"/><path d="M48 52v6H28V32h72v20zm32 24v6H28V64h72v12zm0 0" fill="#deddda"/><g clip-path="url(#o)" mask="url(#p)"><g clip-path="url(#q)" mask="url(#r)"><path d="M128 80.64V128H0V80.64zm0 0" fill="url(#s)"/><path d="M33.309 80.64L80.664 128h21.216L54.52 80.64zm42.421 0L123.094 128h21.215L96.945 80.64zm42.43 0L148 110.48V89.27l-8.629-8.63zM20 88.548v21.215L38.238 128h21.215zm0 0"/></g></g><path d="M42.344 80.344l11.312 11.312 59.598-59.597-11.313-11.313zm0 0" fill="#ff881e"/><path d="M50.777 88.879l4.243 4.242 59.597-59.598-4.242-4.242zm0 0" fill="#e66100"/><path d="M45.121 83.223L40.88 78.98l59.598-59.597 4.242 4.242zm0 0" fill="#ffb367"/><path d="M96.527 23.332l14.141 14.14 5.656-5.656-14.14-14.14zm0 0" fill="url(#t)"/><path d="M116.324 31.816c3.906-3.906 3.906-10.238 0-14.14-3.902-3.906-10.234-3.906-14.14 0-3.907 3.902-3.907 10.234 0 14.14 3.906 3.907 10.238 3.907 14.14 0zm0 0" fill="url(#u)"/><path d="M38 96l17.07-2.93-14.14-14.14zm0 0" fill="url(#v)"/><path d="M38 96l7.414-1.273-6.14-6.141zm0 0" fill="#3d3846"/><path d="M93.7 26.16l14.14 14.14 5.656-5.655-14.14-14.141zm0 0" fill="url(#w)"/></svg>