<?xml version="1.0" encoding="UTF-8"?>
<svg xmlns="http://www.w3.org/2000/svg" xmlns:xlink="http://www.w3.org/1999/xlink" width="16px" height="16px" viewBox="0 0 16 16" version="1.1">
<g id="surface188080">
<path style=" stroke:none;fill-rule:nonzero;fill:rgb(0%,0%,0%);fill-opacity:1;" d="M 2.730469 0 C 1.230469 0 -0.0117188 1.242188 -0.0117188 2.746094 L -0.0117188 13.253906 C -0.0117188 14.757812 1.230469 16 2.730469 16 L 11.257812 16 C 12.757812 16 14 14.757812 14 13.253906 L 14 8.015625 L 12 10.019531 L 12 13.253906 C 12 13.6875 11.6875 14 11.257812 14 L 2.730469 14 C 2.300781 14 1.988281 13.6875 1.988281 13.253906 L 1.988281 3 L 6.980469 3 L 9.980469 0 Z M 2.730469 0 "/>
<path style=" stroke:none;fill-rule:nonzero;fill:rgb(0%,0%,0%);fill-opacity:1;" d="M 11.753906 0.00390625 L 15.996094 4.246094 L 7.246094 12.996094 L 3.003906 8.753906 Z M 11.753906 0.00390625 "/>
<path style=" stroke:none;fill-rule:nonzero;fill:rgb(0%,0%,0%);fill-opacity:1;" d="M 4.0625 8.757812 L 3 8.757812 L 3 13 L 7.242188 13 L 7.242188 11.9375 L 5.128906 11.9375 L 4.558594 11.921875 L 4.074219 11.425781 L 4.0625 10.871094 Z M 4.0625 8.757812 "/>
</g>
</svg>
