<?xml version="1.0" encoding="UTF-8"?>
<svg height="16px" viewBox="0 0 16 16" width="16px" xmlns="http://www.w3.org/2000/svg">
    <path d="m 4 0 c -1.644531 0 -3 1.355469 -3 3 v 10 c 0 1.644531 1.355469 3 3 3 h 7 c 1.644531 0 3 -1.355469 3 -3 v -6.585938 l -2 2 v 4.585938 c 0 0.570312 -0.429688 1 -1 1 h -7 c -0.570312 0 -1 -0.429688 -1 -1 v -8 h 5.585938 l 4.3125 -4.3125 c -0.519532 -0.429688 -1.179688 -0.6875 -1.898438 -0.6875 z m 9.949219 2.464844 l -2.535157 2.535156 h 0.585938 v 0.585938 l 2 -2 v -0.585938 c 0 -0.183594 -0.019531 -0.359375 -0.050781 -0.535156 z m 0 0"/>
    <path d="m 5 12 h 2 l 9 -9 l -2 -2 l -9 9 z m 0 0"/>
    <path d="m 5 12 h 2 l 9 -9 l -2 -2 l -9 9 z m 0 0"/>
</svg>
